<svg width="24" height="24" viewBox="0 0 24 24" fill="none" xmlns="http://www.w3.org/2000/svg">
<circle cx="12" cy="12" r="12" fill="black"/>
<circle cx="12" cy="12.0002" r="10.705" stroke="#FF9933" stroke-width="0.19008" stroke-dasharray="0.38 0.38"/>
<path d="M14.7791 17.5592C13.5681 18.0114 12.0374 18.2375 10.1871 18.2375C9.87525 18.2375 9.59458 18.1076 9.3451 17.8477C9.10082 17.5878 8.97868 17.3097 8.97868 17.0135V8.74946C8.96309 8.39603 8.95009 8.0426 8.9397 7.68917C8.92411 7.28897 8.9371 6.95113 8.97868 6.67566C9.05145 6.1871 9.50623 5.89084 10.343 5.78689C10.738 5.67254 11.3929 5.61537 12.3077 5.61537C13.29 5.61537 14.2308 5.93242 15.1299 6.56651C16.185 7.30456 16.7126 8.22712 16.7126 9.33418C16.7126 9.9319 16.6034 10.4361 16.3851 10.8467C16.2136 11.1793 15.9147 11.5353 15.4885 11.9147C15.9927 12.159 16.4397 12.528 16.8295 13.0218C17.2713 13.5727 17.4922 14.1211 17.4922 14.6668C17.4922 15.3581 17.1154 16.013 16.3617 16.6315C15.8576 17.0421 15.33 17.3513 14.7791 17.5592ZM12.3077 7.72816C11.6372 7.72816 11.2344 7.73335 11.0993 7.74375L11.1071 9.39655L11.0993 11.0338C11.5722 11.0909 11.9283 11.1091 12.1673 11.0883C13.7578 10.9636 14.553 10.3789 14.553 9.33418C14.553 8.96516 14.3191 8.60913 13.8513 8.2661C13.368 7.90747 12.8534 7.72816 12.3077 7.72816ZM13.2198 13.2401C12.7469 13.2401 12.04 13.2219 11.0993 13.1855V16.1013C11.9932 16.0546 12.9626 15.883 14.0073 15.5868C14.922 15.3269 15.3742 15.0462 15.3638 14.7448C15.3482 14.3446 15.0546 13.9885 14.4828 13.6767C14.0358 13.4272 13.6149 13.2817 13.2198 13.2401Z" fill="#FFD54F"/>
<path d="M13.2996 20.6692C13.0912 20.6361 12.9334 20.5282 12.8261 20.3454C12.7473 20.215 12.7086 20.0762 12.7098 19.9291C12.7084 19.1258 12.7177 18.6613 12.7377 18.5355C12.7685 18.3415 12.8529 18.1928 12.9908 18.0894C13.133 17.983 13.3028 17.9455 13.5005 17.9769C13.8993 18.0402 14.0994 18.2764 14.1008 18.6856C14.1051 19.4709 14.0941 19.9462 14.0678 20.1115C14.037 20.3055 13.9506 20.4557 13.8084 20.5621C13.6669 20.6649 13.4973 20.7006 13.2996 20.6692Z" fill="#FFD54F"/>
<path d="M12.5013 8.37429C12.2929 8.34121 12.135 8.23326 12.0278 8.05046C11.949 7.92008 11.9102 7.78131 11.9115 7.63415C11.9101 6.83086 11.9194 6.36633 11.9393 6.24057C11.9701 6.04653 12.0545 5.89784 12.1925 5.79449C12.3346 5.68812 12.5045 5.65062 12.7021 5.68199C13.101 5.74531 13.3011 5.98153 13.3025 6.39065C13.3067 7.17597 13.2957 7.65128 13.2695 7.81657C13.2387 8.01061 13.1522 8.16081 13.0101 8.26718C12.8685 8.36996 12.6989 8.40566 12.5013 8.37429Z" fill="#FFD54F"/>
<path d="M11.0643 20.9885C10.8559 20.9555 10.698 20.8475 10.5907 20.6647C10.512 20.5343 10.4732 20.3956 10.4745 20.2484C10.4731 19.4451 10.4823 18.9806 10.5023 18.8548C10.5331 18.6608 10.6175 18.5121 10.7555 18.4087C10.8976 18.3024 11.0675 18.2649 11.2651 18.2963C11.664 18.3596 11.8641 18.5958 11.8654 19.0049C11.8697 19.7902 11.8587 20.2655 11.8325 20.4308C11.8017 20.6249 11.7152 20.7751 11.5731 20.8814C11.4315 20.9842 11.2619 21.0199 11.0643 20.9885Z" fill="#FFD54F"/>
<path d="M10.5853 8.21511C10.3769 8.18203 10.219 8.07408 10.1117 7.89128C10.033 7.7609 9.99423 7.62213 9.99548 7.47497C9.99407 6.67168 10.0033 6.20715 10.0233 6.08139C10.0541 5.88735 10.1385 5.73866 10.2765 5.63531C10.4186 5.52894 10.5885 5.49144 10.7861 5.52281C11.185 5.58613 11.3851 5.82235 11.3864 6.23147C11.3907 7.01679 11.3797 7.4921 11.3535 7.65739C11.3227 7.85143 11.2362 8.00163 11.0941 8.108C10.9525 8.21078 10.7829 8.24648 10.5853 8.21511Z" fill="#FFD54F"/>
</svg>
