<svg width="99" height="44" viewBox="0 0 99 44" fill="none" xmlns="http://www.w3.org/2000/svg">
<g filter="url(#filter0_i_577_5343)">
<rect width="99" height="44" rx="22" fill="url(#paint0_linear_577_5343)"/>
<path d="M21.7324 18.7402C20.6647 19.1439 20.1309 19.6452 20.1309 20.2441C20.1309 20.7585 20.6647 21.084 21.7324 21.2207V18.7402ZM23.832 27.5098C25.2578 27.015 25.9707 26.3997 25.9707 25.6641C25.9707 24.5573 25.2578 23.929 23.832 23.7793V27.5098ZM28.8613 25.791C28.8613 27.0215 28.3372 28.0404 27.2891 28.8477C26.4297 29.5117 25.2773 29.9935 23.832 30.293V32.7344C23.832 33.431 23.4577 33.7793 22.709 33.7793C22.3835 33.7793 22.1296 33.6556 21.9473 33.4082C21.804 33.2064 21.7324 32.9818 21.7324 32.7344V30.5762C21.4785 30.5892 21.2311 30.5957 20.9902 30.5957C19.6816 30.5957 18.6628 30.4199 17.9336 30.0684C17.276 29.7559 16.9473 29.3555 16.9473 28.8672C16.9473 27.9362 17.4616 27.4707 18.4902 27.4707C18.7572 27.4707 19.2096 27.5684 19.8477 27.7637C20.4857 27.9525 20.8991 28.0469 21.0879 28.0469C21.2637 28.0469 21.4785 28.0306 21.7324 27.998V23.6914C20.5931 23.6198 19.623 23.3789 18.8223 22.9688C17.7741 22.4349 17.25 21.696 17.25 20.752C17.25 19.6777 17.7188 18.6882 18.6562 17.7832C19.4896 16.9759 20.515 16.3802 21.7324 15.9961V14.3848C21.7324 13.623 22.0905 13.2422 22.8066 13.2422C23.4902 13.2422 23.832 13.623 23.832 14.3848V15.6738C24.5677 15.7194 25.3555 15.8822 26.1953 16.1621C27.2695 16.5137 27.8066 16.9173 27.8066 17.373C27.8066 17.7441 27.6732 18.0599 27.4062 18.3203C27.1393 18.5807 26.8203 18.7109 26.4492 18.7109C26.1367 18.7109 25.7005 18.6491 25.1406 18.5254C24.5482 18.4017 24.112 18.3333 23.832 18.3203V21.3184C23.9232 21.3184 23.9948 21.3216 24.0469 21.3281C25.4857 21.4388 26.6217 21.8424 27.4551 22.5391C28.3926 23.3203 28.8613 24.4043 28.8613 25.791ZM38.5 29.6191C36.9831 30.1855 35.0658 30.4688 32.748 30.4688C32.3574 30.4688 32.0059 30.306 31.6934 29.9805C31.3874 29.6549 31.2344 29.3066 31.2344 28.9355V18.584C31.2148 18.1413 31.1986 17.6986 31.1855 17.2559C31.166 16.7546 31.1823 16.3314 31.2344 15.9863C31.3255 15.3743 31.8952 15.0033 32.9434 14.873C33.4382 14.7298 34.2585 14.6582 35.4043 14.6582C36.6348 14.6582 37.8132 15.0553 38.9395 15.8496C40.2611 16.7741 40.9219 17.9297 40.9219 19.3164C40.9219 20.0651 40.7852 20.6966 40.5117 21.2109C40.2969 21.6276 39.9225 22.0736 39.3887 22.5488C40.0202 22.8548 40.5801 23.3171 41.0684 23.9355C41.6217 24.6257 41.8984 25.3125 41.8984 25.9961C41.8984 26.862 41.4264 27.6823 40.4824 28.457C39.8509 28.9714 39.1901 29.3587 38.5 29.6191ZM35.4043 17.3047C34.5645 17.3047 34.0599 17.3112 33.8906 17.3242L33.9004 19.3945L33.8906 21.4453C34.4831 21.5169 34.929 21.5397 35.2285 21.5137C37.2207 21.3574 38.2168 20.625 38.2168 19.3164C38.2168 18.8542 37.9238 18.4082 37.3379 17.9785C36.7324 17.5293 36.0879 17.3047 35.4043 17.3047ZM36.5469 24.209C35.9544 24.209 35.069 24.1862 33.8906 24.1406V27.793C35.0104 27.7344 36.2246 27.5195 37.5332 27.1484C38.679 26.8229 39.2454 26.4714 39.2324 26.0938C39.2129 25.5924 38.8451 25.1465 38.1289 24.7559C37.569 24.4434 37.0417 24.2611 36.5469 24.209ZM53.3145 17.4805C53.1842 17.4805 53.0475 17.4609 52.9043 17.4219C51.8496 17.1354 50.8242 16.9922 49.8281 16.9922C49.3398 16.9922 48.8158 17.0312 48.2559 17.1094C47.696 17.1875 47.1003 17.3047 46.4688 17.4609C46.4688 18.3268 46.4395 19.6126 46.3809 21.3184C46.7454 21.2923 48.0182 21.1719 50.1992 20.957C51.4427 20.8333 52.2305 20.7715 52.5625 20.7715C52.9466 20.7715 53.2754 20.8952 53.5488 21.1426C53.8223 21.3835 53.959 21.7057 53.959 22.1094C53.959 22.8841 53.5456 23.3236 52.7188 23.4277C52.1979 23.4668 51.4199 23.5319 50.3848 23.623C49.4603 23.7272 48.0671 23.8542 46.2051 24.0039C46.1595 24.8307 46.1367 25.498 46.1367 26.0059C46.1367 27.2819 46.2116 28.0078 46.3613 28.1836C46.4329 28.2682 46.8431 28.3105 47.5918 28.3105C47.9954 28.3105 48.6042 28.3008 49.418 28.2812C50.2318 28.2617 50.8405 28.252 51.2441 28.252C51.3743 28.252 51.5664 28.2324 51.8203 28.1934C52.0742 28.1543 52.263 28.1348 52.3867 28.1348C52.7643 28.1348 53.0866 28.2422 53.3535 28.457C53.6595 28.6979 53.8125 29.0365 53.8125 29.4727C53.8125 30.2018 53.4316 30.638 52.6699 30.7812C52.0189 30.9049 50.668 30.9668 48.6172 30.9668C46.4948 30.9668 45.1113 30.6803 44.4668 30.1074C43.7572 29.4759 43.4023 28.1087 43.4023 26.0059C43.4023 25.1335 43.4642 23.8249 43.5879 22.0801C43.7181 20.3288 43.7832 19.0202 43.7832 18.1543C43.7832 17.9264 43.7507 17.5911 43.6855 17.1484C43.6204 16.6992 43.5879 16.3607 43.5879 16.1328C43.5879 15.1432 44.0436 14.6484 44.9551 14.6484C45.2415 14.6484 45.5052 14.7298 45.7461 14.8926C46.5013 14.7038 47.2174 14.5638 47.8945 14.4727C48.5781 14.375 49.2227 14.3262 49.8281 14.3262C51.4688 14.3262 52.7806 14.515 53.7637 14.8926C54.3626 15.1204 54.6621 15.5339 54.6621 16.1328C54.6621 16.4714 54.5449 16.7708 54.3105 17.0312C54.0501 17.3307 53.7181 17.4805 53.3145 17.4805ZM68.0215 24.2578C67.5788 26.1979 66.6868 27.7507 65.3457 28.916C63.985 30.0879 62.39 30.6738 60.5605 30.6738C58.8288 30.6738 57.5299 30.2181 56.6641 29.3066C55.7982 28.3887 55.3652 27.015 55.3652 25.1855C55.3652 23.5189 55.7754 21.8099 56.5957 20.0586C57.416 18.3073 58.4707 16.888 59.7598 15.8008C60.6647 15.0391 61.6348 14.6582 62.6699 14.6582C63.3014 14.6582 64.1608 14.8861 65.248 15.3418C66.5371 15.8822 67.1816 16.4583 67.1816 17.0703C67.1816 17.4219 67.0482 17.7376 66.7812 18.0176C66.5143 18.291 66.1855 18.4277 65.7949 18.4277C65.5996 18.4277 65.1667 18.2454 64.4961 17.8809C63.832 17.5098 63.2233 17.3242 62.6699 17.3242C62.084 17.3242 61.293 17.9557 60.2969 19.2188C58.8451 21.0547 58.1191 23.0436 58.1191 25.1855C58.1191 26.2728 58.2786 27.0117 58.5977 27.4023C58.9362 27.8125 59.5905 28.0176 60.5605 28.0176C61.5566 28.0176 62.4323 27.7344 63.1875 27.168C63.9883 26.569 64.5807 25.6966 64.9648 24.5508C63.4544 24.668 62.1393 24.9772 61.0195 25.4785C60.8177 25.5697 60.6159 25.6152 60.4141 25.6152C60.0104 25.6152 59.6751 25.4655 59.4082 25.166C59.1673 24.8991 59.0469 24.5964 59.0469 24.2578C59.0469 23.2617 60.2253 22.5651 62.582 22.168C63.9102 21.9466 65.4596 21.8359 67.2305 21.8359C67.6211 21.8359 67.9466 21.9629 68.207 22.2168C68.474 22.4707 68.6074 22.7832 68.6074 23.1543C68.6074 23.6296 68.4121 23.9974 68.0215 24.2578ZM74.1543 30.5957C72.5007 30.5957 71.1986 30.2279 70.248 29.4922C69.4473 28.8802 69.0469 28.1738 69.0469 27.373C69.0469 26.9629 69.1706 26.6243 69.418 26.3574C69.6654 26.084 70.0072 25.9473 70.4434 25.9473C71.0293 25.9473 71.459 26.2467 71.7324 26.8457C72.1035 27.6465 72.9434 28.0469 74.252 28.0469C75.3717 28.0469 76.4557 27.8027 77.5039 27.3145C78.5911 26.8132 79.1348 26.263 79.1348 25.6641C79.1348 24.8438 78.7962 24.3034 78.1191 24.043C77.6374 23.8542 76.6706 23.7435 75.2188 23.7109C74.0924 23.6849 73.0833 23.4733 72.1914 23.0762C70.987 22.5358 70.3945 21.7611 70.4141 20.752C70.4336 19.4824 71.1107 18.3203 72.4453 17.2656C73.7799 16.2044 75.2513 15.6738 76.8594 15.6738C77.4974 15.6738 78.2852 15.8203 79.2227 16.1133C80.388 16.4779 80.9707 16.8978 80.9707 17.373C80.9707 17.7116 80.8535 18.0111 80.6191 18.2715C80.3587 18.5645 80.0234 18.7109 79.6133 18.7109C79.3073 18.7109 78.8483 18.6458 78.2363 18.5156C77.6309 18.3854 77.1719 18.3203 76.8594 18.3203C76.0195 18.3268 75.222 18.5286 74.4668 18.9258C73.6855 19.3294 73.2949 19.7689 73.2949 20.2441C73.2949 20.4915 73.4121 20.6966 73.6465 20.8594C73.8874 21.0156 74.2454 21.1263 74.7207 21.1914C75.554 21.237 76.3841 21.2826 77.2109 21.3281C78.6562 21.4388 79.7988 21.8457 80.6387 22.5488C81.5632 23.3301 82.0254 24.4108 82.0254 25.791C82.0254 27.4707 81.0684 28.7435 79.1543 29.6094C77.696 30.2669 76.0293 30.5957 74.1543 30.5957Z" fill="black"/>
</g>
<defs>
<filter id="filter0_i_577_5343" x="0" y="0" width="99" height="48" filterUnits="userSpaceOnUse" color-interpolation-filters="sRGB">
<feFlood flood-opacity="0" result="BackgroundImageFix"/>
<feBlend mode="normal" in="SourceGraphic" in2="BackgroundImageFix" result="shape"/>
<feColorMatrix in="SourceAlpha" type="matrix" values="0 0 0 0 0 0 0 0 0 0 0 0 0 0 0 0 0 0 127 0" result="hardAlpha"/>
<feOffset dy="4"/>
<feGaussianBlur stdDeviation="2"/>
<feComposite in2="hardAlpha" operator="arithmetic" k2="-1" k3="1"/>
<feColorMatrix type="matrix" values="0 0 0 0 0 0 0 0 0 0 0 0 0 0 0 0 0 0 0.25 0"/>
<feBlend mode="normal" in2="shape" result="effect1_innerShadow_577_5343"/>
</filter>
<linearGradient id="paint0_linear_577_5343" x1="0" y1="0" x2="90.5987" y2="57.2867" gradientUnits="userSpaceOnUse">
<stop stop-color="#FFD44F"/>
<stop offset="1" stop-color="#FFE38B"/>
</linearGradient>
</defs>
</svg>
