<svg width="156" height="40" viewBox="0 0 156 40" fill="none" xmlns="http://www.w3.org/2000/svg">
<g filter="url(#filter0_i_805_1383)">
<rect width="156" height="40" rx="20" fill="url(#paint0_linear_805_1383)"/>
<path d="M31.6328 27.6191C30.1159 28.1855 28.1986 28.4688 25.8809 28.4688C25.4902 28.4688 25.1387 28.306 24.8262 27.9805C24.5202 27.6549 24.3672 27.3066 24.3672 26.9355V16.584C24.3477 16.1413 24.3314 15.6986 24.3184 15.2559C24.2988 14.7546 24.3151 14.3314 24.3672 13.9863C24.4583 13.3743 25.028 13.0033 26.0762 12.873C26.571 12.7298 27.3913 12.6582 28.5371 12.6582C29.7676 12.6582 30.946 13.0553 32.0723 13.8496C33.3939 14.7741 34.0547 15.9297 34.0547 17.3164C34.0547 18.0651 33.918 18.6966 33.6445 19.2109C33.4297 19.6276 33.0553 20.0736 32.5215 20.5488C33.153 20.8548 33.7129 21.3171 34.2012 21.9355C34.7546 22.6257 35.0312 23.3125 35.0312 23.9961C35.0312 24.862 34.5592 25.6823 33.6152 26.457C32.9837 26.9714 32.3229 27.3587 31.6328 27.6191ZM28.5371 15.3047C27.6973 15.3047 27.1927 15.3112 27.0234 15.3242L27.0332 17.3945L27.0234 19.4453C27.6159 19.5169 28.0618 19.5397 28.3613 19.5137C30.3535 19.3574 31.3496 18.625 31.3496 17.3164C31.3496 16.8542 31.0566 16.4082 30.4707 15.9785C29.8652 15.5293 29.2207 15.3047 28.5371 15.3047ZM29.6797 22.209C29.0872 22.209 28.2018 22.1862 27.0234 22.1406V25.793C28.1432 25.7344 29.3574 25.5195 30.666 25.1484C31.8118 24.8229 32.3783 24.4714 32.3652 24.0938C32.3457 23.5924 31.9779 23.1465 31.2617 22.7559C30.7018 22.4434 30.1745 22.2611 29.6797 22.209ZM45.168 22.3555C45.168 22.7917 45.1712 23.4492 45.1777 24.3281C45.1842 25.207 45.1875 25.8646 45.1875 26.3008C45.1875 26.4375 45.1973 26.6426 45.2168 26.916C45.2428 27.1829 45.2559 27.3848 45.2559 27.5215C45.2559 27.8861 45.1224 28.1855 44.8555 28.4199C44.5951 28.6608 44.2728 28.7812 43.8887 28.7812C43.3483 28.7812 42.9544 28.5371 42.707 28.0488C41.8737 28.3548 41.0111 28.5078 40.1191 28.5078C39.1947 28.5078 38.4167 28.3125 37.7852 27.9219C37.0755 27.4727 36.6523 26.8184 36.5156 25.959C36.2617 24.3314 36.1348 22.8763 36.1348 21.5938C36.1348 20.7474 36.2324 19.7806 36.4277 18.6934C36.5579 17.9577 36.9974 17.5898 37.7461 17.5898C38.1237 17.5898 38.446 17.7103 38.7129 17.9512C38.9798 18.1855 39.1133 18.485 39.1133 18.8496C39.1133 19.1361 39.0645 19.5853 38.9668 20.1973C38.8757 20.8092 38.8301 21.2747 38.8301 21.5938C38.8301 22.5117 38.8594 23.3158 38.918 24.0059C38.9831 24.6895 39.0775 25.2559 39.2012 25.7051C39.3639 25.7767 39.5202 25.832 39.6699 25.8711C39.8262 25.9102 39.9759 25.9297 40.1191 25.9297C40.8418 25.9297 41.6361 25.8255 42.502 25.6172C42.502 25.1159 42.4987 24.5462 42.4922 23.9082C42.4792 23.1465 42.4727 22.5996 42.4727 22.2676C42.4727 20.9329 42.5345 19.7806 42.6582 18.8105C42.7559 18.0358 43.1986 17.6484 43.9863 17.6484C44.3704 17.6484 44.6992 17.7689 44.9727 18.0098C45.2461 18.2507 45.373 18.5534 45.3535 18.918C45.2298 21.3984 45.168 22.5443 45.168 22.3555ZM56.7305 19.748C56.0208 21.2259 54.8978 23.5469 53.3613 26.7109C52.528 28.4102 51.8932 29.8197 51.457 30.9395C51.3203 31.3431 51.1055 31.9421 50.8125 32.7363C50.5781 33.3483 50.1615 33.6543 49.5625 33.6543C49.1914 33.6543 48.8659 33.5339 48.5859 33.293C48.306 33.0521 48.166 32.7493 48.166 32.3848C48.166 31.7793 48.8561 29.9857 50.2363 27.0039C49.5202 25.5911 48.3841 23.5111 46.8281 20.7637C46.6719 20.5163 46.5124 20.2656 46.3496 20.0117C46.1738 19.7122 46.0859 19.4388 46.0859 19.1914C46.0859 18.8398 46.2259 18.5306 46.5059 18.2637C46.7858 17.9967 47.1081 17.8633 47.4727 17.8633C47.9023 17.8633 48.2376 18.0228 48.4785 18.3418C49.403 19.5723 50.4805 21.4245 51.7109 23.8984C52.4076 22.3555 52.8307 21.4245 52.9805 21.1055C53.4427 20.1354 53.8952 19.2826 54.3379 18.5469C54.6178 18.0781 55.002 17.8438 55.4902 17.8438C55.8548 17.8438 56.1803 17.9674 56.4668 18.2148C56.7533 18.4622 56.8965 18.765 56.8965 19.123C56.8965 19.3118 56.8411 19.5202 56.7305 19.748ZM71.4863 16.7402C70.4186 17.1439 69.8848 17.6452 69.8848 18.2441C69.8848 18.7585 70.4186 19.084 71.4863 19.2207V16.7402ZM73.5859 25.5098C75.0117 25.015 75.7246 24.3997 75.7246 23.6641C75.7246 22.5573 75.0117 21.929 73.5859 21.7793V25.5098ZM78.6152 23.791C78.6152 25.0215 78.0911 26.0404 77.043 26.8477C76.1836 27.5117 75.0312 27.9935 73.5859 28.293V30.7344C73.5859 31.431 73.2116 31.7793 72.4629 31.7793C72.1374 31.7793 71.8835 31.6556 71.7012 31.4082C71.5579 31.2064 71.4863 30.9818 71.4863 30.7344V28.5762C71.2324 28.5892 70.985 28.5957 70.7441 28.5957C69.4355 28.5957 68.4167 28.4199 67.6875 28.0684C67.0299 27.7559 66.7012 27.3555 66.7012 26.8672C66.7012 25.9362 67.2155 25.4707 68.2441 25.4707C68.5111 25.4707 68.9635 25.5684 69.6016 25.7637C70.2396 25.9525 70.653 26.0469 70.8418 26.0469C71.0176 26.0469 71.2324 26.0306 71.4863 25.998V21.6914C70.347 21.6198 69.377 21.3789 68.5762 20.9688C67.528 20.4349 67.0039 19.696 67.0039 18.752C67.0039 17.6777 67.4727 16.6882 68.4102 15.7832C69.2435 14.9759 70.2689 14.3802 71.4863 13.9961V12.3848C71.4863 11.623 71.8444 11.2422 72.5605 11.2422C73.2441 11.2422 73.5859 11.623 73.5859 12.3848V13.6738C74.3216 13.7194 75.1094 13.8822 75.9492 14.1621C77.0234 14.5137 77.5605 14.9173 77.5605 15.373C77.5605 15.7441 77.4271 16.0599 77.1602 16.3203C76.8932 16.5807 76.5742 16.7109 76.2031 16.7109C75.8906 16.7109 75.4544 16.6491 74.8945 16.5254C74.3021 16.4017 73.8659 16.3333 73.5859 16.3203V19.3184C73.6771 19.3184 73.7487 19.3216 73.8008 19.3281C75.2396 19.4388 76.3757 19.8424 77.209 20.5391C78.1465 21.3203 78.6152 22.4043 78.6152 23.791ZM88.2539 27.6191C86.737 28.1855 84.8197 28.4688 82.502 28.4688C82.1113 28.4688 81.7598 28.306 81.4473 27.9805C81.1413 27.6549 80.9883 27.3066 80.9883 26.9355V16.584C80.9688 16.1413 80.9525 15.6986 80.9395 15.2559C80.9199 14.7546 80.9362 14.3314 80.9883 13.9863C81.0794 13.3743 81.6491 13.0033 82.6973 12.873C83.1921 12.7298 84.0124 12.6582 85.1582 12.6582C86.3887 12.6582 87.5671 13.0553 88.6934 13.8496C90.015 14.7741 90.6758 15.9297 90.6758 17.3164C90.6758 18.0651 90.5391 18.6966 90.2656 19.2109C90.0508 19.6276 89.6764 20.0736 89.1426 20.5488C89.7741 20.8548 90.334 21.3171 90.8223 21.9355C91.3757 22.6257 91.6523 23.3125 91.6523 23.9961C91.6523 24.862 91.1803 25.6823 90.2363 26.457C89.6048 26.9714 88.944 27.3587 88.2539 27.6191ZM85.1582 15.3047C84.3184 15.3047 83.8138 15.3112 83.6445 15.3242L83.6543 17.3945L83.6445 19.4453C84.237 19.5169 84.6829 19.5397 84.9824 19.5137C86.9746 19.3574 87.9707 18.625 87.9707 17.3164C87.9707 16.8542 87.6777 16.4082 87.0918 15.9785C86.4863 15.5293 85.8418 15.3047 85.1582 15.3047ZM86.3008 22.209C85.7083 22.209 84.8229 22.1862 83.6445 22.1406V25.793C84.7643 25.7344 85.9785 25.5195 87.2871 25.1484C88.4329 24.8229 88.9993 24.4714 88.9863 24.0938C88.9668 23.5924 88.599 23.1465 87.8828 22.7559C87.3229 22.4434 86.7956 22.2611 86.3008 22.209ZM103.068 15.4805C102.938 15.4805 102.801 15.4609 102.658 15.4219C101.604 15.1354 100.578 14.9922 99.582 14.9922C99.0938 14.9922 98.5697 15.0312 98.0098 15.1094C97.4499 15.1875 96.8542 15.3047 96.2227 15.4609C96.2227 16.3268 96.1934 17.6126 96.1348 19.3184C96.4993 19.2923 97.7721 19.1719 99.9531 18.957C101.197 18.8333 101.984 18.7715 102.316 18.7715C102.701 18.7715 103.029 18.8952 103.303 19.1426C103.576 19.3835 103.713 19.7057 103.713 20.1094C103.713 20.8841 103.299 21.3236 102.473 21.4277C101.952 21.4668 101.174 21.5319 100.139 21.623C99.2142 21.7272 97.821 21.8542 95.959 22.0039C95.9134 22.8307 95.8906 23.498 95.8906 24.0059C95.8906 25.2819 95.9655 26.0078 96.1152 26.1836C96.1868 26.2682 96.597 26.3105 97.3457 26.3105C97.7493 26.3105 98.3581 26.3008 99.1719 26.2812C99.9857 26.2617 100.594 26.252 100.998 26.252C101.128 26.252 101.32 26.2324 101.574 26.1934C101.828 26.1543 102.017 26.1348 102.141 26.1348C102.518 26.1348 102.84 26.2422 103.107 26.457C103.413 26.6979 103.566 27.0365 103.566 27.4727C103.566 28.2018 103.186 28.638 102.424 28.7812C101.773 28.9049 100.422 28.9668 98.3711 28.9668C96.2487 28.9668 94.8652 28.6803 94.2207 28.1074C93.5111 27.4759 93.1562 26.1087 93.1562 24.0059C93.1562 23.1335 93.2181 21.8249 93.3418 20.0801C93.472 18.3288 93.5371 17.0202 93.5371 16.1543C93.5371 15.9264 93.5046 15.5911 93.4395 15.1484C93.3743 14.6992 93.3418 14.3607 93.3418 14.1328C93.3418 13.1432 93.7975 12.6484 94.709 12.6484C94.9954 12.6484 95.2591 12.7298 95.5 12.8926C96.2552 12.7038 96.9714 12.5638 97.6484 12.4727C98.332 12.375 98.9766 12.3262 99.582 12.3262C101.223 12.3262 102.535 12.515 103.518 12.8926C104.117 13.1204 104.416 13.5339 104.416 14.1328C104.416 14.4714 104.299 14.7708 104.064 15.0312C103.804 15.3307 103.472 15.4805 103.068 15.4805ZM117.775 22.2578C117.333 24.1979 116.441 25.7507 115.1 26.916C113.739 28.0879 112.144 28.6738 110.314 28.6738C108.583 28.6738 107.284 28.2181 106.418 27.3066C105.552 26.3887 105.119 25.015 105.119 23.1855C105.119 21.5189 105.529 19.8099 106.35 18.0586C107.17 16.3073 108.225 14.888 109.514 13.8008C110.419 13.0391 111.389 12.6582 112.424 12.6582C113.055 12.6582 113.915 12.8861 115.002 13.3418C116.291 13.8822 116.936 14.4583 116.936 15.0703C116.936 15.4219 116.802 15.7376 116.535 16.0176C116.268 16.291 115.939 16.4277 115.549 16.4277C115.354 16.4277 114.921 16.2454 114.25 15.8809C113.586 15.5098 112.977 15.3242 112.424 15.3242C111.838 15.3242 111.047 15.9557 110.051 17.2188C108.599 19.0547 107.873 21.0436 107.873 23.1855C107.873 24.2728 108.033 25.0117 108.352 25.4023C108.69 25.8125 109.344 26.0176 110.314 26.0176C111.311 26.0176 112.186 25.7344 112.941 25.168C113.742 24.569 114.335 23.6966 114.719 22.5508C113.208 22.668 111.893 22.9772 110.773 23.4785C110.572 23.5697 110.37 23.6152 110.168 23.6152C109.764 23.6152 109.429 23.4655 109.162 23.166C108.921 22.8991 108.801 22.5964 108.801 22.2578C108.801 21.2617 109.979 20.5651 112.336 20.168C113.664 19.9466 115.214 19.8359 116.984 19.8359C117.375 19.8359 117.701 19.9629 117.961 20.2168C118.228 20.4707 118.361 20.7832 118.361 21.1543C118.361 21.6296 118.166 21.9974 117.775 22.2578ZM123.908 28.5957C122.255 28.5957 120.952 28.2279 120.002 27.4922C119.201 26.8802 118.801 26.1738 118.801 25.373C118.801 24.9629 118.924 24.6243 119.172 24.3574C119.419 24.084 119.761 23.9473 120.197 23.9473C120.783 23.9473 121.213 24.2467 121.486 24.8457C121.857 25.6465 122.697 26.0469 124.006 26.0469C125.126 26.0469 126.21 25.8027 127.258 25.3145C128.345 24.8132 128.889 24.263 128.889 23.6641C128.889 22.8438 128.55 22.3034 127.873 22.043C127.391 21.8542 126.424 21.7435 124.973 21.7109C123.846 21.6849 122.837 21.4733 121.945 21.0762C120.741 20.5358 120.148 19.7611 120.168 18.752C120.188 17.4824 120.865 16.3203 122.199 15.2656C123.534 14.2044 125.005 13.6738 126.613 13.6738C127.251 13.6738 128.039 13.8203 128.977 14.1133C130.142 14.4779 130.725 14.8978 130.725 15.373C130.725 15.7116 130.607 16.0111 130.373 16.2715C130.113 16.5645 129.777 16.7109 129.367 16.7109C129.061 16.7109 128.602 16.6458 127.99 16.5156C127.385 16.3854 126.926 16.3203 126.613 16.3203C125.773 16.3268 124.976 16.5286 124.221 16.9258C123.439 17.3294 123.049 17.7689 123.049 18.2441C123.049 18.4915 123.166 18.6966 123.4 18.8594C123.641 19.0156 123.999 19.1263 124.475 19.1914C125.308 19.237 126.138 19.2826 126.965 19.3281C128.41 19.4388 129.553 19.8457 130.393 20.5488C131.317 21.3301 131.779 22.4108 131.779 23.791C131.779 25.4707 130.822 26.7435 128.908 27.6094C127.45 28.2669 125.783 28.5957 123.908 28.5957Z" fill="#FFD44F"/>
</g>
<defs>
<filter id="filter0_i_805_1383" x="0" y="0" width="156" height="44" filterUnits="userSpaceOnUse" color-interpolation-filters="sRGB">
<feFlood flood-opacity="0" result="BackgroundImageFix"/>
<feBlend mode="normal" in="SourceGraphic" in2="BackgroundImageFix" result="shape"/>
<feColorMatrix in="SourceAlpha" type="matrix" values="0 0 0 0 0 0 0 0 0 0 0 0 0 0 0 0 0 0 127 0" result="hardAlpha"/>
<feOffset dy="4"/>
<feGaussianBlur stdDeviation="2"/>
<feComposite in2="hardAlpha" operator="arithmetic" k2="-1" k3="1"/>
<feColorMatrix type="matrix" values="0 0 0 0 0 0 0 0 0 0 0 0 0 0 0 0 0 0 0.25 0"/>
<feBlend mode="normal" in2="shape" result="effect1_innerShadow_805_1383"/>
</filter>
<linearGradient id="paint0_linear_805_1383" x1="0" y1="0" x2="90.7856" y2="99.5018" gradientUnits="userSpaceOnUse">
<stop/>
<stop offset="1" stop-color="#4A4A4A"/>
</linearGradient>
</defs>
</svg>
