<svg width="16" height="16" viewBox="0 0 16 16" fill="none" xmlns="http://www.w3.org/2000/svg">
<rect x="0.476191" y="0.476191" width="15.0476" height="15.0476" rx="7.52381" stroke="black" stroke-width="0.952381"/>
<path d="M7.11113 5.33442H8.88891C8.88891 5.09867 8.79525 4.87258 8.62856 4.70588C8.46186 4.53918 8.23576 4.44553 8.00002 4.44553C7.76427 4.44553 7.53818 4.53918 7.37148 4.70588C7.20478 4.87258 7.11113 5.09867 7.11113 5.33442ZM6.22224 5.33442C6.22224 4.86292 6.40954 4.41074 6.74294 4.07734C7.07634 3.74394 7.52852 3.55664 8.00002 3.55664C8.47151 3.55664 8.9237 3.74394 9.2571 4.07734C9.59049 4.41074 9.77779 4.86292 9.77779 5.33442H12C12.1179 5.33442 12.2309 5.38124 12.3143 5.46459C12.3976 5.54794 12.4445 5.66099 12.4445 5.77886C12.4445 5.89674 12.3976 6.00978 12.3143 6.09313C12.2309 6.17648 12.1179 6.22331 12 6.22331H11.608L11.2142 10.8189C11.1764 11.2626 10.9733 11.676 10.6453 11.9772C10.3172 12.2785 9.88806 12.4456 9.44268 12.4455H6.55735C6.11198 12.4456 5.68281 12.2785 5.35475 11.9772C5.02669 11.676 4.82365 11.2626 4.78579 10.8189L4.39202 6.22331H4.00002C3.88214 6.22331 3.7691 6.17648 3.68575 6.09313C3.6024 6.00978 3.55557 5.89674 3.55557 5.77886C3.55557 5.66099 3.6024 5.54794 3.68575 5.46459C3.7691 5.38124 3.88214 5.33442 4.00002 5.33442H6.22224ZM9.33335 8.00108C9.33335 7.88321 9.28652 7.77016 9.20318 7.68682C9.11983 7.60347 9.00678 7.55664 8.88891 7.55664C8.77103 7.55664 8.65799 7.60347 8.57464 7.68682C8.49129 7.77016 8.44446 7.88321 8.44446 8.00108V9.77886C8.44446 9.89674 8.49129 10.0098 8.57464 10.0931C8.65799 10.1765 8.77103 10.2233 8.88891 10.2233C9.00678 10.2233 9.11983 10.1765 9.20318 10.0931C9.28652 10.0098 9.33335 9.89674 9.33335 9.77886V8.00108ZM7.11113 7.55664C6.99325 7.55664 6.88021 7.60347 6.79686 7.68682C6.71351 7.77016 6.66668 7.88321 6.66668 8.00108V9.77886C6.66668 9.89674 6.71351 10.0098 6.79686 10.0931C6.88021 10.1765 6.99325 10.2233 7.11113 10.2233C7.229 10.2233 7.34205 10.1765 7.4254 10.0931C7.50875 10.0098 7.55557 9.89674 7.55557 9.77886V8.00108C7.55557 7.88321 7.50875 7.77016 7.4254 7.68682C7.34205 7.60347 7.229 7.55664 7.11113 7.55664Z" fill="black"/>
</svg>
