<svg width="24" height="24" viewBox="0 0 24 24" fill="none" xmlns="http://www.w3.org/2000/svg">
<rect x="0.714286" y="0.714286" width="22.5714" height="22.5714" rx="11.2857" fill="white"/>
<rect x="0.714286" y="0.714286" width="22.5714" height="22.5714" rx="11.2857" stroke="#F27360" stroke-width="1.42857"/>
<path d="M10.6667 7.99967H13.3333C13.3333 7.64605 13.1929 7.30691 12.9428 7.05687C12.6928 6.80682 12.3536 6.66634 12 6.66634C11.6464 6.66634 11.3072 6.80682 11.0572 7.05687C10.8071 7.30691 10.6667 7.64605 10.6667 7.99967ZM9.33334 7.99967C9.33334 7.29243 9.61429 6.61415 10.1144 6.11406C10.6145 5.61396 11.2928 5.33301 12 5.33301C12.7072 5.33301 13.3855 5.61396 13.8856 6.11406C14.3857 6.61415 14.6667 7.29243 14.6667 7.99967H18C18.1768 7.99967 18.3464 8.06991 18.4714 8.19494C18.5964 8.31996 18.6667 8.48953 18.6667 8.66634C18.6667 8.84315 18.5964 9.01272 18.4714 9.13775C18.3464 9.26277 18.1768 9.33301 18 9.33301H17.412L16.8213 16.2263C16.7646 16.892 16.46 17.5121 15.9679 17.9639C15.4758 18.4157 14.8321 18.6664 14.164 18.6663H9.836C9.16794 18.6664 8.52419 18.4157 8.0321 17.9639C7.54002 17.5121 7.23545 16.892 7.17867 16.2263L6.588 9.33301H6C5.82319 9.33301 5.65362 9.26277 5.5286 9.13775C5.40357 9.01272 5.33334 8.84315 5.33334 8.66634C5.33334 8.48953 5.40357 8.31996 5.5286 8.19494C5.65362 8.06991 5.82319 7.99967 6 7.99967H9.33334ZM14 11.9997C14 11.8229 13.9298 11.6533 13.8047 11.5283C13.6797 11.4032 13.5101 11.333 13.3333 11.333C13.1565 11.333 12.987 11.4032 12.8619 11.5283C12.7369 11.6533 12.6667 11.8229 12.6667 11.9997V14.6663C12.6667 14.8432 12.7369 15.0127 12.8619 15.1377C12.987 15.2628 13.1565 15.333 13.3333 15.333C13.5101 15.333 13.6797 15.2628 13.8047 15.1377C13.9298 15.0127 14 14.8432 14 14.6663V11.9997ZM10.6667 11.333C10.4899 11.333 10.3203 11.4032 10.1953 11.5283C10.0702 11.6533 10 11.8229 10 11.9997V14.6663C10 14.8432 10.0702 15.0127 10.1953 15.1377C10.3203 15.2628 10.4899 15.333 10.6667 15.333C10.8435 15.333 11.013 15.2628 11.1381 15.1377C11.2631 15.0127 11.3333 14.8432 11.3333 14.6663V11.9997C11.3333 11.8229 11.2631 11.6533 11.1381 11.5283C11.013 11.4032 10.8435 11.333 10.6667 11.333Z" fill="#F27360"/>
</svg>
