<svg width="64" height="64" viewBox="0 0 64 64" fill="none" xmlns="http://www.w3.org/2000/svg">
<g filter="url(#filter0_d_153_1276)">
<circle cx="32" cy="28" r="20" fill="#FFD44F"/>
</g>
<g clip-path="url(#clip0_153_1276)">
<path fill-rule="evenodd" clip-rule="evenodd" d="M29.0584 18.256C27.7582 18.938 26.6945 19.5151 26.6947 19.5385C26.6953 19.5991 29.8151 21.19 29.9259 21.1862C29.9762 21.1845 30.3417 21.0151 30.7379 20.8098L31.4583 20.4367L32.2452 20.844L33.032 21.2513L34.3205 20.6683C36.2621 19.7898 36.4638 19.6935 36.4322 19.6612C36.3902 19.6183 35.6938 19.2416 33.8044 18.24C32.8913 17.7559 32.005 17.2813 31.8349 17.1852C31.6648 17.0892 31.5024 17.012 31.474 17.0134C31.4456 17.0149 30.3585 17.5741 29.0584 18.256ZM23.3559 21.2294L22.0024 21.9333V25.0227C22.0024 26.7219 22.0202 28.1121 22.042 28.1121C22.0637 28.1121 22.7296 27.8215 23.5218 27.4662L24.962 26.8203V23.5639L25.6658 23.95C26.2081 24.2472 26.7507 24.5438 27.2937 24.8399L28.2179 25.3437L28.6291 25.1564C28.887 25.0388 29.1444 24.9201 29.4012 24.8002C29.5997 24.7071 30.087 24.4861 30.484 24.309C30.881 24.1319 31.2485 23.9537 31.3006 23.9131C31.3698 23.8592 30.5257 23.3895 28.1785 22.1758C26.4092 21.261 24.9049 20.5154 24.8355 20.519C24.7661 20.5225 24.1003 20.8422 23.3559 21.2294ZM36.6761 21.4271C35.7543 21.8461 34.9995 22.2056 34.9986 22.2261C34.9978 22.2466 35.5002 22.5474 36.1151 22.8945C36.73 23.2416 37.2331 23.5441 37.2331 23.5669C37.2331 23.5897 36.689 23.8551 36.0241 24.157C35.359 24.4587 33.6781 25.2231 32.2886 25.8555L27.6327 27.9746C26.4616 28.5077 25.4059 28.9882 25.2868 29.0425C22.8946 30.1329 22.2371 30.4354 22.1468 30.4874C22.056 30.5397 22.0354 30.8434 22.0193 32.3681L22 34.1866L23.2103 34.8076L24.4206 35.4285L26.0989 34.6658C27.0219 34.2464 27.7771 33.8813 27.7771 33.8544C27.7771 33.8276 27.6065 33.7157 27.3982 33.6056C27.1897 33.4956 26.7593 33.2519 26.4417 33.0641C26.1241 32.8763 25.8075 32.7039 25.7379 32.6811C25.6684 32.6583 25.6126 32.6184 25.6137 32.5924C25.6149 32.5665 26.3539 32.213 27.2559 31.8069C29.0078 31.0182 30.3486 30.4103 33.227 29.0996C34.5141 28.5137 35.8013 27.9281 37.0888 27.3428C38.2202 26.8286 39.5358 26.228 40.0122 26.0082L40.8784 25.6086L40.8976 23.7694L40.917 21.9303L39.6894 21.2958C39.0143 20.9469 38.4371 20.6623 38.4069 20.6634C38.3767 20.6643 37.5978 21.0079 36.6761 21.4271ZM40.5495 28.0621C40.3686 28.1511 40.0113 28.3177 39.7555 28.4323C39.4997 28.5469 39.0143 28.7674 38.6768 28.9224L38.0632 29.2042L38.0492 30.8189C38.0415 31.7069 38.009 32.4295 37.9771 32.4248C37.9044 32.414 36.7545 31.8201 35.5985 31.1965C34.7642 30.7464 34.7118 30.7285 34.5158 30.8262C34.4025 30.8828 33.725 31.1887 33.0104 31.5062C32.2958 31.8236 31.6878 32.104 31.6592 32.1294C31.6307 32.1548 33.0689 32.9397 34.8554 33.8738L38.1035 35.5721L39.491 34.8494C40.254 34.4519 40.9029 34.0894 40.9327 34.0438C41 33.9413 40.9942 27.8863 40.9269 27.8945C40.9003 27.8977 40.7304 27.9732 40.5495 28.0621ZM32.866 35.1691C32.6254 35.2733 32.3848 35.3776 32.1442 35.4821C31.4178 35.7986 31.5602 35.8091 30.696 35.3759C30.1204 35.0874 29.8723 34.9984 29.7646 35.0416C29.6838 35.074 28.9886 35.3889 28.2196 35.7414C27.4506 36.0939 26.7948 36.3823 26.7621 36.3823C26.4395 36.3823 26.9759 36.705 29.0457 37.7563L31.4731 38.9891L32.4944 38.4814C33.0561 38.2021 34.1891 37.6429 35.0122 37.2388C35.8352 36.8345 36.4985 36.4932 36.486 36.4804C36.4735 36.4675 35.7839 36.111 34.9534 35.688L33.4435 34.919L32.866 35.1691Z" fill="#5D3014"/>
</g>
<defs>
<filter id="filter0_d_153_1276" x="0" y="0" width="64" height="64" filterUnits="userSpaceOnUse" color-interpolation-filters="sRGB">
<feFlood flood-opacity="0" result="BackgroundImageFix"/>
<feColorMatrix in="SourceAlpha" type="matrix" values="0 0 0 0 0 0 0 0 0 0 0 0 0 0 0 0 0 0 127 0" result="hardAlpha"/>
<feOffset dy="4"/>
<feGaussianBlur stdDeviation="6"/>
<feComposite in2="hardAlpha" operator="out"/>
<feColorMatrix type="matrix" values="0 0 0 0 0.364706 0 0 0 0 0.188235 0 0 0 0 0.0784314 0 0 0 0.4 0"/>
<feBlend mode="normal" in2="BackgroundImageFix" result="effect1_dropShadow_153_1276"/>
<feBlend mode="normal" in="SourceGraphic" in2="effect1_dropShadow_153_1276" result="shape"/>
</filter>
<clipPath id="clip0_153_1276">
<rect width="19" height="22" fill="white" transform="translate(22 17)"/>
</clipPath>
</defs>
</svg>
