<svg width="64" height="64" viewBox="0 0 64 64" fill="none" xmlns="http://www.w3.org/2000/svg">
<rect width="64" height="64" rx="8" fill="#FFD44F"/>
<path d="M39.5567 19.4984C40.5234 18.5392 41.8299 18.0006 43.1917 18L43.1933 18.0062C44.3494 18.0062 45.4702 18.3993 46.3735 19.1192C47.6013 18.7049 48.9408 18.7748 50.1188 19.3145C51.2968 19.8543 52.2245 20.8232 52.7125 22.0235C53.6439 22.3955 54.4432 23.037 55.008 23.8658C55.5729 24.6945 55.8777 25.673 55.8835 26.676C55.888 27.4656 55.7141 28.246 55.3748 28.959C55.9914 29.8115 56.3259 30.8367 56.3305 31.888C56.3371 32.5712 56.2081 33.2489 55.9508 33.8819C55.6936 34.5149 55.3134 35.0905 54.8321 35.5755L47.6638 42.7438C46.6075 43.7978 45.3503 44.6291 43.9668 45.1882C42.5832 45.7473 41.1015 46.0228 39.6095 45.9985C38.1174 45.9742 36.6455 45.6506 35.2808 45.0467C33.9162 44.4429 32.6868 43.5712 31.6654 42.4832C31.5821 42.5727 31.4968 42.6616 31.4095 42.7499C29.3187 44.8327 26.4871 46.0012 23.536 45.9992C20.5848 45.9972 17.7549 44.8248 15.6669 42.7391L8.49863 35.5708C8.01755 35.0861 7.63741 34.5107 7.3802 33.878C7.123 33.2453 6.99385 32.5679 7.00023 31.8849C7.00639 30.832 7.33937 29.8084 7.956 28.956C7.61456 28.2437 7.44056 27.4627 7.44728 26.6729C7.45531 25.6715 7.76053 24.695 8.32425 23.8672C8.88797 23.0395 9.68479 22.3978 10.6137 22.0235C10.9913 21.0838 11.6421 20.2789 12.4819 19.7128C13.3217 19.1467 14.3119 18.8454 15.3247 18.8479C15.8828 18.8479 16.4346 18.9404 16.9634 19.1192C17.8667 18.3974 18.9889 18.0048 20.1452 18.0062C21.5064 18.0062 22.8121 18.5457 23.7787 19.5046L26.0911 21.8169C26.869 21.2038 27.8011 20.8173 28.7847 20.7C29.7683 20.5828 30.7651 20.7394 31.6654 21.1525C32.3743 20.8248 33.1459 20.6549 33.9269 20.6546C35.1317 20.6531 36.3014 21.0607 37.2443 21.8108L39.5567 19.4984ZM43.9671 21.2342C43.7184 21.1314 43.4599 21.0811 43.1917 21.0831C42.6477 21.0823 42.1253 21.2962 41.738 21.6782L36.6046 26.8116C36.5831 26.8365 36.5566 26.8565 36.5269 26.8703C36.4971 26.8841 36.4647 26.8914 36.4319 26.8918C36.3995 26.8914 36.3675 26.8846 36.3378 26.8718C36.308 26.8591 36.281 26.8406 36.2584 26.8174C36.2358 26.7942 36.218 26.7668 36.2059 26.7367C36.1939 26.7066 36.1879 26.6744 36.1884 26.6421V26.01C36.1893 25.5749 36.065 25.1488 35.8303 24.7824C35.5955 24.4161 35.2603 24.1251 34.8646 23.9442C34.4689 23.7632 34.0295 23.7 33.5989 23.7621C33.1683 23.8242 32.7646 24.0089 32.4362 24.2942V38.2193C32.8504 39.099 33.4184 39.8977 34.1134 40.5779C34.8567 41.3227 35.7402 41.913 36.7128 42.3146C37.6854 42.7163 38.7279 42.9213 39.7802 42.918C40.8391 42.9191 41.8877 42.7117 42.8664 42.3075C43.8451 41.9034 44.7345 41.3104 45.484 40.5624L52.6523 33.3941C53.0336 33.0113 53.2477 32.493 53.2477 31.9528C53.2477 31.4125 53.0336 30.8942 52.6523 30.5114C52.4874 30.3532 52.2965 30.2245 52.0881 30.1306L47.2892 34.9295C47.137 35.0767 46.9328 35.1577 46.721 35.1548C46.5093 35.1519 46.3074 35.0654 46.1592 34.9141L46.1469 34.8987C45.8848 34.612 45.8124 34.1063 46.1654 33.7764L52.751 27.1909C52.8272 26.8554 52.8171 26.5061 52.7217 26.1755C52.6263 25.845 52.4486 25.5441 52.2053 25.3009C51.9396 25.0463 51.6089 24.8697 51.2495 24.7906C51.1599 25.2057 50.9578 25.5881 50.6653 25.8959L50.6637 25.8975L50.6591 25.9021L44.4681 32.1085C44.3159 32.2556 44.1117 32.3366 43.9 32.3337C43.6883 32.3309 43.4863 32.2443 43.3382 32.0931C43.1864 31.9449 43.0996 31.7426 43.0967 31.5305C43.0938 31.3184 43.1751 31.1138 43.3227 30.9615L49.9407 24.342C50.0395 23.8888 49.9774 23.4153 49.765 23.0029C49.5526 22.5905 49.2032 22.2649 48.7768 22.0821C48.5281 21.9793 48.2696 21.929 48.0014 21.931C47.4574 21.9302 46.935 22.144 46.5477 22.5261L46.4121 22.6617L46.4737 23.0147C46.6001 23.7624 46.3812 24.5378 45.8263 25.0943L41.6486 29.272C41.4963 29.4196 41.2917 29.5009 41.0797 29.498C40.8676 29.4951 40.6653 29.4083 40.5171 29.2566C40.3653 29.1084 40.2785 28.9061 40.2756 28.694C40.2727 28.4819 40.354 28.2773 40.5017 28.125L45.131 23.4942C45.2298 23.0409 45.1677 22.5674 44.9553 22.155C44.7429 21.7426 44.3935 21.417 43.9671 21.2342ZM30.8946 38.2254V24.3436L30.8823 24.3343C30.556 24.0568 30.1577 23.8775 29.7336 23.8171C29.3095 23.7567 28.877 23.8177 28.4862 23.9931C28.0954 24.1685 27.7624 24.451 27.5256 24.808C27.2889 25.165 27.1581 25.5818 27.1486 26.01V26.6421C27.149 26.6744 27.143 26.7066 27.131 26.7367C27.119 26.7668 27.1011 26.7942 27.0785 26.8174C27.0559 26.8406 27.0289 26.8591 26.9992 26.8718C26.9694 26.8846 26.9374 26.8914 26.905 26.8918C26.8722 26.8914 26.8398 26.8841 26.81 26.8703C26.7803 26.8565 26.7538 26.8365 26.7323 26.8116L21.5989 21.6782C21.3115 21.3943 20.9471 21.201 20.5509 21.1221C20.1547 21.0432 19.7441 21.0821 19.3698 21.2342C18.9656 21.4028 18.629 21.7011 18.413 22.0821C18.1969 22.463 18.1138 22.905 18.1766 23.3385L22.9632 28.125C23.1109 28.2773 23.1921 28.4819 23.1892 28.694C23.1864 28.9061 23.0995 29.1084 22.9478 29.2566C22.7997 29.4078 22.5977 29.4944 22.386 29.4972C22.1743 29.5001 21.97 29.4192 21.8178 29.272L17.6402 25.0943C17.3728 24.8251 17.1743 24.4953 17.0616 24.133C16.9489 23.7707 16.9253 23.3866 16.9927 23.0132L17.0343 22.7712L16.7892 22.5261C16.5018 22.2422 16.1374 22.0488 15.7412 21.9699C15.345 21.891 14.9344 21.93 14.5601 22.0821C14.1559 22.2507 13.8193 22.549 13.6032 22.9299C13.3872 23.3109 13.3041 23.7529 13.3669 24.1863L20.1437 30.9615C20.2908 31.1137 20.3718 31.318 20.3689 31.5297C20.3661 31.7414 20.2795 31.9434 20.1283 32.0915C19.9801 32.2433 19.7778 32.3301 19.5657 32.333C19.3536 32.3359 19.149 32.2546 18.9967 32.1069L12.8058 25.9021L12.7996 25.8959C12.5027 25.5819 12.2998 25.191 12.2138 24.7675C11.8069 24.8299 11.429 25.0162 11.1316 25.3009C10.9085 25.5257 10.7404 25.7991 10.6406 26.0997C10.5409 26.4003 10.5121 26.72 10.5566 27.0336L17.301 33.7764C17.654 34.1063 17.5816 34.612 17.3195 34.9003L17.3072 34.9141C17.159 35.0659 16.9567 35.1527 16.7446 35.1556C16.5325 35.1585 16.3279 35.0772 16.1757 34.9295L11.3397 30.0921C11.0961 30.1877 10.8735 30.3302 10.6846 30.5114C10.3033 30.8942 10.0893 31.4125 10.0893 31.9528C10.0893 32.493 10.3033 33.0113 10.6846 33.3941L17.8529 40.5624C18.6024 41.3104 19.4918 41.9034 20.4705 42.3075C21.4492 42.7117 22.4979 42.9191 23.5567 42.918C24.6091 42.9222 25.6519 42.7175 26.6246 42.3158C27.5974 41.9141 28.4807 41.3234 29.2235 40.5779C29.9157 39.8991 30.4815 39.1025 30.8946 38.2254Z" fill="#5D3014"/>
</svg>
