<svg width="279" height="159" viewBox="0 0 279 159" fill="none" xmlns="http://www.w3.org/2000/svg">
<path d="M183.808 8.45969C189.266 3.04413 196.642 0.00362631 204.331 0L204.339 0.0348193C210.867 0.0348193 217.194 2.25418 222.294 6.31866C229.226 3.97996 236.789 4.37444 243.44 7.4216C250.09 10.4688 255.328 15.9389 258.083 22.7158C263.341 24.8163 267.854 28.4377 271.043 33.1168C274.232 37.796 275.953 43.3201 275.986 48.9827C276.011 53.4407 275.03 57.847 273.113 61.8724C276.595 66.6853 278.483 72.4731 278.51 78.4088C278.547 82.266 277.818 86.0922 276.366 89.6658C274.914 93.2394 272.767 96.4893 270.05 99.2273L229.579 139.698C223.616 145.649 216.518 150.342 208.707 153.499C200.895 156.655 192.53 158.211 184.106 158.074C175.682 157.936 167.372 156.109 159.668 152.7C151.963 149.291 145.022 144.369 139.255 138.227C138.785 138.732 138.304 139.234 137.811 139.733C126.006 151.492 110.02 158.089 93.3586 158.077C76.6969 158.066 60.7199 151.447 48.9317 139.672L8.46096 99.2012C5.74488 96.4642 3.59866 93.2157 2.14655 89.6437C0.694438 86.0717 -0.0347254 82.2471 0.00127059 78.3914C0.0360841 72.447 1.91601 66.6679 5.39737 61.855C3.4697 57.8336 2.48728 53.4246 2.52525 48.9652C2.57059 43.3114 4.29381 37.7983 7.47644 33.1251C10.6591 28.4519 15.1577 24.829 20.402 22.7158C22.5342 17.4103 26.2083 12.8661 30.9496 9.67003C35.6909 6.47399 41.2816 4.77303 46.9995 4.78686C50.1502 4.78686 53.266 5.30907 56.2512 6.31866C61.351 2.24342 67.687 0.027064 74.215 0.0348193C81.9001 0.0348193 89.2719 3.08101 94.7289 8.49451L107.784 21.5496C112.176 18.0878 117.439 15.9057 122.992 15.2438C128.545 14.582 134.173 15.466 139.255 17.7984C143.258 15.9483 147.614 14.9892 152.023 14.9872C158.826 14.9787 165.429 17.2802 170.753 21.5148L183.808 8.45969ZM208.708 18.2597C207.304 17.6795 205.845 17.3952 204.331 17.4068C201.259 17.4022 198.31 18.6094 196.123 20.7663L167.141 49.7485C167.02 49.8888 166.87 50.0018 166.702 50.0798C166.534 50.1578 166.352 50.1992 166.166 50.2011C165.983 50.1988 165.803 50.1606 165.635 50.0885C165.467 50.0164 165.314 49.9119 165.187 49.781C165.059 49.6501 164.958 49.4953 164.89 49.3254C164.823 49.1556 164.789 48.974 164.791 48.7912V45.2228C164.797 42.7664 164.095 40.3604 162.769 38.2922C161.444 36.224 159.552 34.581 157.318 33.5595C155.084 32.538 152.603 32.1811 150.172 32.5316C147.741 32.8821 145.462 33.9251 143.607 35.5359V114.154C145.946 119.12 149.153 123.63 153.076 127.47C157.273 131.675 162.261 135.008 167.752 137.275C173.243 139.543 179.129 140.7 185.07 140.682C191.048 140.688 196.969 139.517 202.494 137.235C208.019 134.953 213.041 131.605 217.273 127.383L257.743 86.912C259.896 84.7507 261.104 81.8246 261.104 78.7743C261.104 75.724 259.896 72.798 257.743 70.6367C256.812 69.7437 255.734 69.0166 254.558 68.4869L227.464 95.5806C226.605 96.4115 225.452 96.8687 224.256 96.8524C223.061 96.8361 221.921 96.3476 221.085 95.4935L221.015 95.4065C219.535 93.7877 219.126 90.933 221.119 89.0704L258.3 51.8896C258.731 49.9956 258.674 48.0234 258.135 46.1574C257.596 44.2913 256.593 42.5924 255.219 41.2192C253.719 39.7817 251.852 38.785 249.823 38.3384C249.318 40.6819 248.176 42.841 246.525 44.5787L246.516 44.5874L246.49 44.6135L211.537 79.6534C210.678 80.4843 209.525 80.9415 208.329 80.9252C207.134 80.9089 205.994 80.4204 205.157 79.5663C204.301 78.7297 203.811 77.5875 203.794 76.3902C203.778 75.1928 204.237 74.0378 205.07 73.178L242.434 35.8057C242.992 33.2468 242.641 30.5735 241.442 28.2451C240.243 25.9167 238.27 24.0786 235.863 23.0466C234.459 22.4663 233 22.182 231.485 22.1936C228.414 22.1891 225.465 23.3963 223.278 25.5531L222.512 26.319L222.86 28.3121C223.574 32.5333 222.338 36.9111 219.205 40.053L195.619 63.6392C194.759 64.4727 193.604 64.9316 192.406 64.9153C191.209 64.899 190.067 64.4088 189.23 63.5521C188.374 62.7154 187.883 61.5733 187.867 60.3759C187.851 59.1786 188.31 58.0235 189.143 57.1638L215.279 31.0189C215.837 28.4599 215.486 25.7866 214.287 23.4582C213.088 21.1298 211.116 19.2917 208.708 18.2597ZM134.904 114.188V35.8144L134.834 35.7622C132.992 34.1954 130.743 33.1828 128.349 32.8419C125.955 32.5009 123.513 32.8455 121.307 33.8357C119.1 34.8259 117.22 36.4212 115.883 38.4366C114.546 40.452 113.808 42.805 113.754 45.2228V48.7912C113.757 48.974 113.723 49.1556 113.655 49.3254C113.587 49.4953 113.487 49.6501 113.359 49.781C113.231 49.9119 113.079 50.0164 112.911 50.0885C112.743 50.1606 112.562 50.1988 112.379 50.2011C112.194 50.1992 112.011 50.1578 111.843 50.0798C111.675 50.0018 111.526 49.8888 111.405 49.7485L82.4223 20.7663C80.7995 19.1636 78.7424 18.072 76.5055 17.6265C74.2686 17.181 71.9502 17.4011 69.8372 18.2597C67.5552 19.2116 65.6547 20.8956 64.4351 23.0464C63.2154 25.1973 62.746 27.6928 63.1008 30.1398L90.1248 57.1638C90.9584 58.0235 91.4173 59.1786 91.401 60.3759C91.3847 61.5733 90.8945 62.7154 90.0378 63.5521C89.2014 64.4062 88.0612 64.8947 86.8659 64.911C85.6707 64.9273 84.5175 64.4701 83.6582 63.6392L60.072 40.053C58.5626 38.533 57.4421 36.6712 56.8058 34.6257C56.1694 32.5803 56.0359 30.4115 56.4166 28.3034L56.6516 26.937L55.2678 25.5531C53.6449 23.9505 51.5878 22.8589 49.3509 22.4134C47.1141 21.9678 44.7957 22.188 42.6827 23.0466C40.4006 23.9984 38.5001 25.6824 37.2805 27.8333C36.0609 29.9842 35.5915 32.4797 35.9462 34.9267L74.2063 73.178C75.0372 74.0374 75.4945 75.1905 75.4782 76.3858C75.4619 77.581 74.9733 78.7213 74.1193 79.5576C73.2826 80.4143 72.1405 80.9045 70.9431 80.9209C69.7457 80.9372 68.5907 80.4783 67.731 79.6447L32.7782 44.6135L32.7434 44.5787C31.0673 42.8059 29.9216 40.5988 29.4361 38.2079C27.1385 38.5602 25.0052 39.6117 23.3263 41.2192C22.0663 42.4883 21.1175 44.032 20.5542 45.7293C19.991 47.4266 19.8287 49.2313 20.08 51.0018L58.1573 89.0704C60.1504 90.933 59.7413 93.7877 58.2617 95.4152L58.1921 95.4935C57.3554 96.3502 56.2133 96.8404 55.0159 96.8567C53.8186 96.8731 52.6635 96.4142 51.8038 95.5806L24.5013 68.2693C23.1255 68.8093 21.8689 69.6135 20.8024 70.6367C18.6499 72.798 17.4414 75.724 17.4414 78.7743C17.4414 81.8246 18.6499 84.7507 20.8024 86.912L61.2731 127.383C65.5045 131.605 70.5263 134.953 76.0516 137.235C81.577 139.517 87.4976 140.688 93.4756 140.682C99.4173 140.705 105.305 139.55 110.796 137.282C116.288 135.014 121.276 131.679 125.469 127.47C129.377 123.637 132.572 119.14 134.904 114.188Z" fill="#5D3014"/>
</svg>
