<svg width="384" height="94" viewBox="0 0 384 94" fill="none" xmlns="http://www.w3.org/2000/svg">
<path d="M202.971 82.1312C222.579 75.9876 233.494 55.1118 227.351 35.5038C221.207 15.8957 200.331 4.98054 180.723 11.1241C161.115 17.2677 150.2 38.1436 156.343 57.7516C162.487 77.3597 183.363 88.2748 202.971 82.1312Z" fill="#FFEAAA"/>
<path d="M99.134 46.6897C99.134 67.1002 115.927 83.8934 136.338 83.8934V46.6897L136.419 9.48584C136.389 9.48584 136.367 9.48584 136.338 9.48584C115.927 9.48584 99.134 26.2791 99.134 46.6897Z" fill="#FFEAAA"/>
<path d="M245.875 9.48584V46.6897L245.795 83.8934C245.824 83.8934 245.846 83.8934 245.875 83.8934C266.286 83.8934 283.079 67.1002 283.079 46.6897C283.079 26.2791 266.286 9.48584 245.875 9.48584Z" fill="#FFEAAA"/>
<path d="M300.306 11.2871V82.0918C315.232 77.2465 326.15 63.1444 326.15 46.6895C326.15 30.2346 315.239 16.1324 300.306 11.2871Z" fill="#FFEAAA"/>
<path d="M56.6144 46.6895C56.6144 63.1444 67.5328 77.2392 82.4584 82.0918V11.2871C67.5328 16.1324 56.6144 30.2346 56.6144 46.6895Z" fill="#FFEAAA"/>
<path d="M342.157 14.9932V75.9235C351.796 69.1739 358.156 58.0054 358.156 45.462C358.156 32.9039 351.796 21.7428 342.157 14.9932Z" fill="#FFEAAA"/>
<path d="M24.6381 45.4542C24.6308 58.0049 30.9833 69.1734 40.6151 75.9304L40.6593 15C31.0201 21.7423 24.6455 32.9034 24.6381 45.4542Z" fill="#FFEAAA"/>
<path d="M376.618 23.3745V67.5411C381.243 61.3503 384 53.7037 384 45.4541C384 37.2046 381.243 29.5653 376.618 23.3745Z" fill="#FFEAAA"/>
<path d="M7.38196 67.5411V23.3745C2.75722 29.5653 0 37.212 0 45.4615C0 53.711 2.76458 61.3503 7.38196 67.5411Z" fill="#FFEAAA"/>
</svg>
