<svg width="26" height="26" viewBox="0 0 26 26" fill="none" xmlns="http://www.w3.org/2000/svg">
<circle cx="13" cy="13" r="12" fill="#FFD44F" stroke="#5D3014"/>
<path d="M13 13.9334L9.7333 17.2C9.61108 17.3223 9.45553 17.3834 9.26664 17.3834C9.07775 17.3834 8.92219 17.3223 8.79997 17.2C8.67775 17.0778 8.61664 16.9223 8.61664 16.7334C8.61664 16.5445 8.67775 16.3889 8.79997 16.2667L12.0666 13L8.79997 9.73337C8.67775 9.61114 8.61664 9.45559 8.61664 9.2667C8.61664 9.07781 8.67775 8.92225 8.79997 8.80003C8.92219 8.67781 9.07775 8.6167 9.26664 8.6167C9.45553 8.6167 9.61108 8.67781 9.7333 8.80003L13 12.0667L16.2666 8.80003C16.3889 8.67781 16.5444 8.6167 16.7333 8.6167C16.9222 8.6167 17.0777 8.67781 17.2 8.80003C17.3222 8.92225 17.3833 9.07781 17.3833 9.2667C17.3833 9.45559 17.3222 9.61114 17.2 9.73337L13.9333 13L17.2 16.2667C17.3222 16.3889 17.3833 16.5445 17.3833 16.7334C17.3833 16.9223 17.3222 17.0778 17.2 17.2C17.0777 17.3223 16.9222 17.3834 16.7333 17.3834C16.5444 17.3834 16.3889 17.3223 16.2666 17.2L13 13.9334Z" fill="#5D3014"/>
</svg>
