<svg width="24" height="24" viewBox="0 0 24 24" fill="none" xmlns="http://www.w3.org/2000/svg">
<circle cx="12" cy="12" r="12" fill="#FFD44F"/>
<path d="M15.3334 18.6668C14.7778 18.6668 14.3056 18.4724 13.9167 18.0835C13.5278 17.6946 13.3334 17.2224 13.3334 16.6668C13.3334 16.6002 13.35 16.4446 13.3834 16.2002L8.70004 13.4668C8.52226 13.6335 8.31671 13.7642 8.08337 13.8588C7.85004 13.9535 7.60004 14.0006 7.33337 14.0002C6.77782 14.0002 6.3056 13.8057 5.91671 13.4168C5.52782 13.0279 5.33337 12.5557 5.33337 12.0002C5.33337 11.4446 5.52782 10.9724 5.91671 10.5835C6.3056 10.1946 6.77782 10.0002 7.33337 10.0002C7.60004 10.0002 7.85004 10.0475 8.08337 10.1422C8.31671 10.2368 8.52226 10.3673 8.70004 10.5335L13.3834 7.80016C13.3612 7.72238 13.3474 7.6475 13.342 7.5755C13.3367 7.5035 13.3338 7.42283 13.3334 7.3335C13.3334 6.77794 13.5278 6.30572 13.9167 5.91683C14.3056 5.52794 14.7778 5.3335 15.3334 5.3335C15.8889 5.3335 16.3612 5.52794 16.75 5.91683C17.1389 6.30572 17.3334 6.77794 17.3334 7.3335C17.3334 7.88905 17.1389 8.36127 16.75 8.75016C16.3612 9.13905 15.8889 9.3335 15.3334 9.3335C15.0667 9.3335 14.8167 9.28616 14.5834 9.1915C14.35 9.09683 14.1445 8.96638 13.9667 8.80016L9.28337 11.5335C9.3056 11.6113 9.3196 11.6864 9.32537 11.7588C9.33115 11.8313 9.33382 11.9117 9.33337 12.0002C9.33293 12.0886 9.33026 12.1693 9.32537 12.2422C9.32049 12.3151 9.30649 12.3899 9.28337 12.4668L13.9667 15.2002C14.1445 15.0335 14.35 14.9031 14.5834 14.8088C14.8167 14.7146 15.0667 14.6673 15.3334 14.6668C15.8889 14.6668 16.3612 14.8613 16.75 15.2502C17.1389 15.6391 17.3334 16.1113 17.3334 16.6668C17.3334 17.2224 17.1389 17.6946 16.75 18.0835C16.3612 18.4724 15.8889 18.6668 15.3334 18.6668Z" fill="#5D3014"/>
</svg>
